# xmcd
#
# Track frame offsets:
#	150
#	20289
#	45089
#	62841
#	86554
#	105169
#	119150
#	137074
#	152454
#	178784
#	193855
#
# Disc length: 2843 seconds
#
# Revision: 1
# Processed by: cddbd v1.5.2PL0 Copyright (c) Steve Scherf et al.
# Submitted via: audiograbber 1.83.01
#
DISCID=880b190b
DTITLE=Special 20 - Someday
DYEAR=2007
DGENRE=Blues
TTITLE0=When you were mine
TTITLE1=Love is nowhere to be found
TTITLE2=Natural wonder
TTITLE3=Black voodoo queen
TTITLE4=Two of a kind
TTITLE5=Fallen angel
TTITLE6=Soul light
TTITLE7=My baby don't know
TTITLE8=Que passa
TTITLE9=Someday
TTITLE10=Under the rain
EXTD=
EXTT0=
EXTT1=
EXTT2=
EXTT3=
EXTT4=
EXTT5=
EXTT6=
EXTT7=
EXTT8=
EXTT9=
EXTT10=
PLAYORDER=
